mtllib material.mtl
o Default
v 0 -3 0
v 0 4.440892098500626e-16 0
v 0 4.440892098500626e-16 3
v 0 -3 3
v 3 -4.440892098500626e-16 0.01726090908050537
v 3 -3 3
v 3 -3 0
v 3 -4.440892098500626e-16 3
v 0 -3 0.01726090908050537
v 3 -4.440892098500626e-16 0.01726090908050537
v 3 -3 0.01726090908050537
v 0 -4.440892098500626e-16 0.01726090908050537
v 0 -3 3
v 3 -3 0
v 3 -3 3
v 0 -3 0
v 0 4.440892098500626e-16 3
v 3 -3 3
v 3 -4.440892098500626e-16 3
v 0 -3 3
v 0 4.440892098500626e-16 0
v 3 -4.440892098500626e-16 3
v 3 0 0
v 0 0 3
vt 0.3046875 0.65625
vt 0.3515625 0.703125
vt 0.3046875 0.703125
vt 0.3046875 0.65625
vt 0.3515625 0.65625
vt 0.3515625 0.703125
vt 0.3046875 0.65625
vt 0.3515625 0.703125
vt 0.3046875 0.703125
vt 0.3046875 0.65625
vt 0.3515625 0.65625
vt 0.3515625 0.703125
vt 0.3046875 0.65625
vt 0.3515625 0.703125
vt 0.3046875 0.703125
vt 0.3046875 0.65625
vt 0.3515625 0.65625
vt 0.3515625 0.703125
vt 0.3046875 0.65625
vt 0.3515625 0.703125
vt 0.3046875 0.703125
vt 0.3046875 0.65625
vt 0.3515625 0.65625
vt 0.3515625 0.703125
vt 0.3046875 0.65625
vt 0.3515625 0.703125
vt 0.3046875 0.703125
vt 0.3046875 0.65625
vt 0.3515625 0.65625
vt 0.3515625 0.703125
vt 0.3046875 0.65625
vt 0.3515625 0.703125
vt 0.3046875 0.703125
vt 0.3046875 0.65625
vt 0.3515625 0.65625
vt 0.3515625 0.703125
vn -1 0 0
vn -1 0 0
vn -1 0 0
vn -1 0 0
vn -1 0 0
vn -1 0 0
vn 1 0 0
vn 1 0 0
vn 1 0 0
vn 1 0 0
vn 1 0 0
vn 1 0 0
vn 0 0 -1
vn 0 0 -1
vn 0 0 -1
vn 0 0 -1
vn 0 0 -1
vn 0 0 -1
vn 0 -1 0
vn 0 -1 0
vn 0 -1 0
vn 0 -1 0
vn 0 -1 0
vn 0 -1 0
vn 0 0 1
vn 0 0 1
vn 0 0 1
vn 0 0 1
vn 0 0 1
vn 0 0 1
vn 1.4802973661668753e-16 1 1.4802973661668753e-16
vn 1.4802973661668753e-16 1 1.4802973661668753e-16
vn 1.4802973661668753e-16 1 1.4802973661668753e-16
vn 1.4802973661668753e-16 1 1.4802973661668753e-16
vn 1.4802973661668753e-16 1 1.4802973661668753e-16
vn 1.4802973661668753e-16 1 1.4802973661668753e-16
g Object 4188
usemtl material1
f 1/1/1 3/2/2 2/3/3
f 1/4/4 4/5/5 3/6/6
f 5/7/7 6/8/8 7/9/9
f 5/10/10 8/11/11 6/12/12
f 9/13/13 10/14/14 11/15/15
f 9/16/16 12/17/17 10/18/18
f 13/19/19 14/20/20 15/21/21
f 13/22/22 16/23/23 14/24/24
f 17/25/25 18/26/26 19/27/27
f 17/28/28 20/29/29 18/30/30
f 21/31/31 22/32/32 23/33/33
f 21/34/34 24/35/35 22/36/36
